<?xml version="1.0" standalone="no"?><!DOCTYPE svg PUBLIC "-//W3C//DTD SVG 1.1//EN" "http://www.w3.org/Graphics/SVG/1.1/DTD/svg11.dtd"><svg t="1767107603651" class="icon" viewBox="0 0 1024 1024" version="1.1" xmlns="http://www.w3.org/2000/svg" p-id="5338" width="500" height="500" xmlns:xlink="http://www.w3.org/1999/xlink"><path d="M0 0m128 0l768 0q128 0 128 128l0 768q0 128-128 128l-768 0q-128 0-128-128l0-768q0-128 128-128Z" fill="#7698F0" p-id="5339"></path><path d="M204 269.952c0-36.416 29.536-66.016 66.016-66.016h43.936c0.096 0 0.096 0 0.096-0.096V160.096C314.048 160 314.048 160 313.92 160H270.08A110.144 110.144 0 0 0 160 270.112v43.84c0 0.096 0 0.096 0.096 0.096h43.84c0.064 0 0.064 0 0.064-0.096V269.952zM753.92 160h-43.84c-0.096 0-0.096 0-0.096 0.096v43.84c0 0.064 0 0.064 0.096 0.064h43.936c36.384 0 66.016 29.536 66.016 66.016v43.936c0 0.096 0 0.096 0.064 0.096h43.84c0.096 0 0.096 0 0.096-0.096V270.08A110.08 110.08 0 0 0 753.888 160z m66.112 351.904A307.968 307.968 0 0 0 512 203.936c-170.112 0-308 137.92-308 307.968a307.936 307.936 0 0 0 160.416 270.336c0.096 0 0.096 0.096 0 0.192l-72.32 81.376c-0.064 0.096 0 0.192 0.128 0.192h65.824l59.04-59.04h0.096a306.24 306.24 0 0 0 94.912 15.04c33.12 0 64.96-5.408 94.912-15.04h0.096L666.112 864h65.856c0.096 0 0.096-0.096 0.096-0.192l-72.32-81.376v-0.192a308.032 308.032 0 0 0 160.256-270.336z m-307.904 22.016a22.08 22.08 0 0 1-22.08-22.08v-175.264c0-12.992 10.656-23.52 23.584-22.528a21.92 21.92 0 0 1 20.32 21.92v153.92c0 0.096 0 0.096 0.096 0.096h131.328c12.992 0 23.488 10.688 22.528 23.616a21.92 21.92 0 0 1-21.92 20.32h-153.856z" fill="#FFFFFF" p-id="5340"></path></svg>