<?xml version="1.0" standalone="no"?><!DOCTYPE svg PUBLIC "-//W3C//DTD SVG 1.1//EN" "http://www.w3.org/Graphics/SVG/1.1/DTD/svg11.dtd"><svg t="1767338488912" class="icon" viewBox="0 0 1065 1024" version="1.1" xmlns="http://www.w3.org/2000/svg" p-id="10065" xmlns:xlink="http://www.w3.org/1999/xlink" width="520.01953125" height="500"><path d="M941.884982 0H122.807828A122.922996 122.922996 0 0 0 0 122.884607v655.154232a122.846217 122.846217 0 0 0 122.807828 122.884607H245.692435c22.649771 0 40.923146-9.904476 40.923146-32.554248s-18.273375-34.089825-40.923146-34.089825H145.879883c-77.469896 0-79.850041-72.517658-79.850041-95.205818V148.989428c0-22.457824 14.626378-79.850041 79.850041-79.850041h768.595036c70.175902 0 79.92682 57.392217 79.926821 79.850041v590.084127c0 51.288296-14.626378 95.205818-79.926821 95.205818h-259.359076c-10.940991 0-21.306141 4.414786-29.022419 12.131064l-94.015745 97.470796-94.015746-97.470796c-16.123566-16.046787-46.336058-19.578616-57.968059 0-14.396041 24.377296-3.301492 37.544875 5.604859 48.21714l117.279748 117.279748c8.176951 8.100172 18.503711 12.054285 29.099198 12.054286s21.075804-4.184449 29.022418-12.054286l110.830322-110.983879h269.916173a122.846217 122.846217 0 0 0 122.807828-122.884607V122.884607A122.846217 122.846217 0 0 0 941.884982 0z" fill="#1afa29" p-id="10066"></path><path d="M272.104371 430.00015m-55.242408 0a55.242408 55.242408 0 1 0 110.484817 0 55.242408 55.242408 0 1 0-110.484817 0Z" fill="#1afa29" p-id="10067"></path><path d="M847.869236 429.961761a55.280798 55.280798 0 1 0-55.319187 55.280797 55.395966 55.395966 0 0 0 55.319187-55.280797z" fill="#1afa29" p-id="10068"></path><path d="M532.269626 429.961761m-55.242408 0a55.242408 55.242408 0 1 0 110.484816 0 55.242408 55.242408 0 1 0-110.484816 0Z" fill="#1afa29" p-id="10069"></path></svg>