<?xml version="1.0" standalone="no"?><!DOCTYPE svg PUBLIC "-//W3C//DTD SVG 1.1//EN" "http://www.w3.org/Graphics/SVG/1.1/DTD/svg11.dtd"><svg t="1767271601170" class="icon" viewBox="0 0 1024 1024" version="1.1" xmlns="http://www.w3.org/2000/svg" p-id="5023" xmlns:xlink="http://www.w3.org/1999/xlink" width="500" height="500"><path d="M394.666667 448h-256A53.333333 53.333333 0 0 1 85.333333 394.666667v-256A53.333333 53.333333 0 0 1 138.666667 85.333333h256A53.333333 53.333333 0 0 1 448 138.666667v256a53.333333 53.333333 0 0 1-53.333333 53.333333zM149.333333 384h234.666667V149.333333H149.333333v234.666667zM885.333333 448h-256a53.333333 53.333333 0 0 1-53.333333-53.333333v-256A53.333333 53.333333 0 0 1 629.333333 85.333333h256A53.333333 53.333333 0 0 1 938.666667 138.666667v256a53.333333 53.333333 0 0 1-53.333334 53.333333zM640 384h234.666667V149.333333H640v234.666667zM394.666667 938.453333h-256a53.333333 53.333333 0 0 1-53.333334-53.333333v-256a53.333333 53.333333 0 0 1 53.333334-53.333333h256a53.333333 53.333333 0 0 1 53.333333 53.333333v256a53.333333 53.333333 0 0 1-53.333333 53.333333z m-245.333334-64h234.666667v-234.666666H149.333333v234.666666zM906.666667 696.106667h-298.666667c-17.706667 0-32-14.293333-32-32s14.293333-32 32-32h298.666667c17.706667 0 32 14.293333 32 32s-14.293333 32-32 32zM906.666667 884.906667h-298.666667c-17.706667 0-32-14.293333-32-32s14.293333-32 32-32h298.666667c17.706667 0 32 14.293333 32 32s-14.293333 32-32 32z" p-id="5024" fill="#1296db"></path></svg>